<?xml version="1.0" encoding="iso-8859-1"?>
<!-- Generator: Adobe Illustrator 19.0.0, SVG Export Plug-In . SVG Version: 6.00 Build 0)  -->
<svg version="1.1" id="Layer_1" xmlns="http://www.w3.org/2000/svg" xmlns:xlink="http://www.w3.org/1999/xlink" x="0px" y="0px"
	 viewBox="0 0 512 512" style="enable-background:new 0 0 512 512;" xml:space="preserve">
<path style="fill:#F4B2B0;" d="M247.373,115.14L142.516,236.718c-9.555,11.079-9.555,27.485,0,38.563L247.373,396.86
	c8.869,10.282,21.774,16.196,35.353,16.196l0,0c39.953,0,61.448-46.922,35.353-77.177l-52.262-60.597
	c-9.555-11.079-9.555-27.485,0-38.563l52.262-60.597c26.095-30.255,4.6-77.177-35.353-77.177l0,0
	C269.148,98.945,256.242,104.856,247.373,115.14z"/>
<g>
	<path style="fill:#B3404A;" d="M282.727,428.761c-18.163,0-35.385-7.889-47.247-21.644L130.623,285.539
		c-14.524-16.839-14.524-42.238,0-59.078l104.858-121.58c11.861-13.753,29.082-21.642,47.245-21.642
		c24.702,0,46.437,13.95,56.724,36.407c10.287,22.457,6.656,48.027-9.477,66.733l-52.262,60.597c-4.437,5.144-4.437,12.904,0,18.047
		l52.262,60.597c16.133,18.705,19.764,44.275,9.477,66.733C329.163,414.81,307.428,428.761,282.727,428.761z M282.727,114.65
		c-9.018,0-17.57,3.917-23.459,10.746l-104.859,121.58c-4.437,5.144-4.437,12.904,0,18.047l104.858,121.58
		c5.891,6.83,14.441,10.747,23.461,10.747c12.451,0,22.98-6.758,28.166-18.079s3.428-23.707-4.704-33.136l-52.262-60.597
		c-14.524-16.839-14.524-42.238,0-59.078l52.262-60.597c8.132-9.428,9.89-21.817,4.704-33.135S295.178,114.65,282.727,114.65z"/>
	<path style="fill:#B3404A;" d="M260.145,512c-141.16,0-256-114.842-256-256s114.84-256,256-256
		c115.451,0,217.09,77.753,247.163,189.082c2.262,8.374-2.693,16.997-11.068,19.258c-8.374,2.262-16.993-2.692-19.258-11.066
		C450.603,99.615,361.435,31.411,260.145,31.411C136.306,31.411,35.556,132.16,35.556,256s100.749,224.589,224.589,224.589
		c88.898,0,169.569-52.551,205.521-133.88c3.507-7.933,12.783-11.523,20.714-8.015c7.934,3.507,11.522,12.781,8.016,20.714
		C453.419,452.105,361.471,512,260.145,512z"/>
</g>
<g>
</g>
<g>
</g>
<g>
</g>
<g>
</g>
<g>
</g>
<g>
</g>
<g>
</g>
<g>
</g>
<g>
</g>
<g>
</g>
<g>
</g>
<g>
</g>
<g>
</g>
<g>
</g>
<g>
</g>
</svg>
