<svg id="Layer_5" enable-background="new 0 0 64 64" height="512" viewBox="0 0 64 64" width="512" xmlns="http://www.w3.org/2000/svg"><g><g><g><path d="m62 39.19c0 3.07-1.26 6.01-3.49 8.12l-14.78 14c-.47.44-1.09.69-1.73.69s-1.26-.25-1.73-.69l-14.74-13.97c.31-.74.47-1.53.47-2.34v-11c0-.55-.22-1.05-.59-1.41-.23-.24-.53-.42-.86-.51v-.01c2.06-2.49 5.16-4.07 8.64-4.07h.18c2.96 0 5.81 1.18 7.91 3.28l.72.72.72-.72c2.1-2.1 4.95-3.28 7.91-3.28h.18c3.09 0 5.89 1.25 7.91 3.28 2.03 2.02 3.28 4.82 3.28 7.91z" fill="#ff826e"/></g><g><path d="m25 56v6h-20v-6c0-1.1.9-2 2-2h16c1.1 0 2 .9 2 2z" fill="#b4dd7f"/></g><g><path d="m2 2h20v20h-20z" fill="#e6e9ed"/></g><g><path d="m24 32 .55.08c.33.09.63.27.86.51.37.36.59.86.59 1.41v11c0 .81-.16 1.6-.47 2.34-.19.44-.44.87-.73 1.26l-1.8 2.4v3h-16v-.04-2.96l-2.37-4.78c-.42-.83-.63-1.74-.63-2.67v-4.11c0-.97-.23-1.94-.66-2.81l-1.17-2.33c-.11-.22-.17-.47-.17-.72 0-.9.72-1.62 1.62-1.62h.09c3.48 0 6.29 2.81 6.29 6.28v-16.24-2c0-1.1.9-2 2-2 .55 0 1.05.22 1.41.59.37.36.59.86.59 1.41v2 10c0-1.1.9-2 2-2 .55 0 1.05.22 1.41.59.37.36.59.86.59 1.41 0-1.1.9-2 2-2 .55 0 1.05.22 1.41.59.37.36.59.86.59 1.41v2c0-1.1.9-2 2-2z" fill="#f0d0b4"/></g><g><path d="m50 43v4h-6v6h-4v-6h-6v-4h6v-6h4v6z" fill="#e6e9ed"/></g></g><g><path d="m19.707 6.707-1.414-1.414-9.293 9.293-2.293-2.293-1.414 1.414 3.707 3.707z"/><path d="m50.813 27h-.179c-3.255 0-6.315 1.268-8.617 3.569l-.017.017-.017-.017c-2.301-2.301-5.362-3.569-8.617-3.569h-.179c-3.46 0-6.708 1.466-9.019 4.017-.056-.003-.11-.017-.168-.017-.395 0-.77.081-1.116.22-.345-1.275-1.501-2.22-2.884-2.22-.771 0-1.468.301-2 .78-.532-.48-1.229-.78-2-.78-.352 0-.686.072-1 .184v-6.184h8v-22h-22v22h8v10.258c-1.341-1.411-3.245-2.299-5.382-2.3-1.443 0-2.618 1.175-2.618 2.618 0 .404.096.81.276 1.171l1.165 2.331c.366.731.559 1.548.559 2.364v4.108c0 1.075.253 2.151.73 3.112l2.27 4.572v1.95c-1.161.414-2 1.514-2 2.816v7h22v-7c0-1.302-.839-2.402-2-2.816v-1.851l1.6-2.133c.061-.082.105-.174.163-.259l13.824 13.097c.654.62 1.511.962 2.413.962s1.759-.342 2.413-.962l14.781-14.003c2.419-2.292 3.806-5.516 3.806-8.847 0-6.72-5.468-12.188-12.187-12.188zm-47.813-6v-18h18v18h-6v-1c0-1.654-1.346-3-3-3s-3 1.346-3 3v1zm21 40h-18v-5c0-.552.448-1 1-1h16c.552 0 1 .448 1 1zm-2-10.333v2.333h-14v-2.234l-2.479-4.992c-.34-.687-.521-1.456-.521-2.223v-4.108c0-1.125-.267-2.252-.77-3.259l-1.165-2.331c-.043-.085-.065-.181-.065-.277 0-.341.277-.618.714-.618 2.915.001 5.286 2.373 5.286 5.287v1.713 2h2v-2-1.713-18.245c0-.552.448-1 1-1s1 .448 1 1v12 4h2v-4c0-.552.448-1 1-1s1 .448 1 1v4h2v-4c0-.552.448-1 1-1s1 .448 1 1v2 2h2v-2c0-.552.448-1 1-1s1 .448 1 1v11c0 1.075-.355 2.141-1 3zm35.819-4.083-14.781 14.003c-.563.533-1.514.533-2.076 0l-14.284-13.532c.204-.665.322-1.357.322-2.055v-11c0-.835-.344-1.59-.896-2.134 1.892-1.833 4.416-2.866 7.084-2.866h.179c2.721 0 5.279 1.06 7.203 2.983l1.43 1.431 1.431-1.431c1.923-1.923 4.482-2.983 7.203-2.983h.179c5.617 0 10.187 4.57 10.187 10.188 0 2.784-1.159 5.48-3.181 7.396z"/><path d="m51.021 31.002-.051 2c3.325.084 6.03 2.859 6.03 6.186 0 1.152-.325 2.285-.939 3.274l1.699 1.055c.812-1.306 1.24-2.803 1.24-4.329 0-4.402-3.579-8.074-7.979-8.186z"/><path d="m52.588 45.013h2.943v1.999h-2.943z" transform="matrix(.726 -.688 .688 .726 -16.83 49.794)"/><path d="m45 36h-6v6h-6v6h6v6h6v-6h6v-6h-6zm4 8v2h-6v6h-2v-6h-6v-2h6v-6h2v6z"/></g></g></svg>