<svg id="_x33_0" enable-background="new 0 0 64 64" height="512" viewBox="0 0 64 64" width="512" xmlns="http://www.w3.org/2000/svg"><g><g><g><path d="m28 13v16.41.01c-.3-.11-.61-.19-.93-.24l-5.4-.9c-.96-.16-1.67-1-1.67-1.97v-1.98-.01c2.37-1.12 4-3.52 4-6.32v-3.19c0-1.03-.78-1.89-1.8-1.99l-3.22-.32c-1.99-.2-3.64-1.43-4.44-3.13h-.01l-2.28 1.83c-1.42 1.14-2.25 2.86-2.25 4.68v2.12c0 1.94.78 3.68 2.05 4.95.56.56 1.22 1.03 1.95 1.37v.01 1.98c0 .97-.71 1.81-1.67 1.97l-5.4.9c-.32.05-.63.13-.93.24v-.01-16.41c0-6.08 4.92-11 11-11 3.04 0 5.79 1.23 7.78 3.22s3.22 4.74 3.22 7.78z" fill="#656d78"/></g><g><path d="m20 24.33v1.98c0 .97.71 1.81 1.67 1.97l5.4.9c.32.05.63.13.93.24 2.35.79 4 3.02 4 5.58v2.62c-1.29 1.71-2 3.79-2 5.94v.64c0 .95.12 1.89.34 2.8h-4.34l-2-4-3 7-4-13-5 19-4-13h-6v-8c0-2.56 1.65-4.79 4-5.58.3-.11.61-.19.93-.24l5.4-.9c.96-.16 1.67-1 1.67-1.97v-1.98-.01l3 .68c1.07 0 2.09-.24 3-.68z" fill="#f0d0b4"/></g><g><path d="m14.54 9.37c.8 1.7 2.45 2.93 4.44 3.13l3.22.32c1.02.1 1.8.96 1.8 1.99v3.19c0 2.8-1.63 5.2-4 6.32-.91.44-1.93.68-3 .68l-3-.68c-.73-.34-1.39-.81-1.95-1.37-1.27-1.27-2.05-3.01-2.05-4.95v-2.12c0-1.82.83-3.54 2.25-4.68l2.28-1.83z" fill="#f0d0b4"/></g><g><path d="m60 6-.23.46c-1.08 2.17-3.3 3.54-5.73 3.54-.69 0-1.37-.11-2.03-.33l-2.01-.67.72-1.79c.77-1.94 2.65-3.21 4.73-3.21 1.01 0 2 .3 2.84.86z" fill="#b4dd7f"/></g><g><path d="m43.28 5.21.72 1.79-2.01.67c-.66.22-1.34.33-2.03.33-2.43 0-4.65-1.37-5.73-3.54l-.23-.46 1.71-1.14c.84-.56 1.83-.86 2.84-.86 2.08 0 3.96 1.27 4.73 3.21z" fill="#a0d468"/></g><g><path d="m43.01 17.35.99 1.65-1.2.8c-1.17.78-2.55 1.2-3.96 1.2-2.92 0-5.55-1.78-6.64-4.49l-.2-.51 1.26-.84c1.13-.76 2.47-1.16 3.83-1.16 2.43 0 4.67 1.27 5.92 3.35z" fill="#b4dd7f"/></g><g><path d="m62 20-.2.51c-1.09 2.71-3.72 4.49-6.64 4.49-1.41 0-2.79-.42-3.96-1.2l-1.2-.8.99-1.65c1.25-2.08 3.49-3.35 5.92-3.35 1.36 0 2.7.4 3.83 1.16z" fill="#b4dd7f"/></g><g><path d="m62 43.56v.64c0 3.65-1.72 7.09-4.64 9.28l-11.36 8.52-11.36-8.52c-2.16-1.62-3.66-3.92-4.3-6.48-.22-.91-.34-1.85-.34-2.8v-.64c0-2.15.71-4.23 2-5.94.09-.12.18-.24.28-.36.86-1.04 1.93-1.85 3.12-2.41 1.19-.55 2.5-.85 3.85-.85 1.2 0 2.37.24 3.46.69s2.09 1.11 2.94 1.96l.35.35.35-.35c1.7-1.7 4-2.65 6.4-2.65 1.35 0 2.66.3 3.85.85 1.19.56 2.26 1.37 3.12 2.41 1.47 1.77 2.28 4 2.28 6.3z" fill="#ef7385"/></g><g><path d="m52 46v2c0 .55-.45 1-1 1h-3v3c0 .55-.45 1-1 1h-2c-.55 0-1-.45-1-1v-3h-3c-.55 0-1-.45-1-1v-2c0-.55.45-1 1-1h3v-3c0-.55.45-1 1-1h2c.55 0 1 .45 1 1v3h3c.55 0 1 .45 1 1z" fill="#fcd770"/></g></g><g><path d="m51 44h-2v-2c0-1.103-.897-2-2-2h-2c-1.103 0-2 .897-2 2v2h-2c-1.103 0-2 .897-2 2v2c0 1.103.897 2 2 2h2v2c0 1.103.897 2 2 2h2c1.103 0 2-.897 2-2v-2h2c1.103 0 2-.897 2-2v-2c0-1.103-.897-2-2-2zm0 4h-4v4h-2v-4h-4v-2h4v-4h2v4l4-.001z"/><path d="m52.755 33c-2.09 0-4.078.641-5.755 1.816v-6.635c.669-1.854 2.221-3.296 3.036-3.955l.609.406c1.343.895 2.906 1.368 4.518 1.368 3.351 0 6.318-2.01 7.562-5.119l.506-1.263-1.937-1.291c-1.302-.868-2.818-1.327-4.385-1.327-2.761 0-5.357 1.47-6.778 3.838l-.88 1.467c-.396.288-1.329 1.017-2.251 2.085v-10.209c.711-1.968 2.417-3.472 3.177-4.068l1.52.507c.757.252 1.545.38 2.343.38 2.823 0 5.362-1.569 6.626-4.096l.623-1.247-2.449-1.632c-1.006-.671-2.176-1.025-3.385-1.025-2.51 0-4.734 1.506-5.667 3.836l-.608 1.521c-.451.333-1.406 1.097-2.325 2.202-.275-1.5-.936-2.894-1.93-4.03-.028-.032-.042-.046-.065-.071l-.648-1.621c-.933-2.331-3.157-3.837-5.667-3.837-1.209 0-2.379.354-3.385 1.025l-2.449 1.632.623 1.248c1.264 2.526 3.803 4.095 6.626 4.095.798 0 1.586-.128 2.343-.38l1.35-.45c.858 1.119 1.347 2.507 1.347 3.977v6.472c-.081-.095-.149-.172-.197-.225l-.934-1.557c-1.421-2.367-4.017-3.837-6.778-3.837-1.566 0-3.083.459-4.385 1.328l-1.937 1.291.506 1.262c1.243 3.11 4.211 5.12 7.562 5.12 1.612 0 3.175-.473 4.518-1.368l.453-.302c.32.424.75 1.066 1.193 1.918v12.568c-1.678-1.176-3.666-1.817-5.756-1.817-2.296 0-4.483.781-6.245 2.179v-.179c0-2.755-1.604-5.163-4-6.266v-15.734c0-6.617-5.383-12-12-12s-12 5.383-12 12v15.734c-2.396 1.103-4 3.511-4 6.266v3h2v-3c0-2.406 1.723-4.44 4.096-4.835l5.397-.9c1.453-.243 2.507-1.487 2.507-2.959v-.569c.641.166 1.308.263 2 .263s1.359-.097 2-.263v.569c0 1.473 1.054 2.717 2.507 2.959l5.397.9c2.373.395 4.096 2.429 4.096 4.835v2.296c-1.293 1.826-2 4.021-2 6.269v.635c0 .607.059 1.206.146 1.8h-2.528l-2.688-5.375-2.776 6.477-4.229-13.745-5 19-3.187-10.357h-7.738v2h6.262l4.813 15.644 5-19 3.771 12.255 3.224-7.523 1.312 2.624h4.231c.789 2.475 2.314 4.695 4.428 6.28l11.959 8.97 11.96-8.97c3.156-2.366 5.04-6.135 5.04-10.08v-.635c0-2.532-.893-4.999-2.514-6.944-1.918-2.301-4.735-3.621-7.731-3.621zm-.909-11.133c1.061-1.768 3.001-2.867 5.063-2.867 1.17 0 2.303.343 3.275.992l.581.387c-.991 2.208-3.161 3.621-5.602 3.621-1.217 0-2.396-.357-3.408-1.032l-.407-.271zm-.2-14.287c.626-1.567 2.122-2.58 3.809-2.58.813 0 1.6.238 2.275.689l.971.647c-.97 1.652-2.723 2.664-4.661 2.664-.583 0-1.158-.093-1.71-.277l-1.008-.336zm-40.646 10.42v-2.116c0-1.527.684-2.95 1.877-3.904l1.386-1.109c1.06 1.441 2.702 2.431 4.613 2.623l3.224.322c.514.051.9.479.9.995v3.189c0 3.309-2.691 6-6 6s-6-2.691-6-6zm10.835 9.292c-.483-.081-.835-.496-.835-.986v-1.388c2.387-1.386 4-3.964 4-6.918v-3.19c0-1.547-1.161-2.831-2.701-2.985l-3.224-.322c-2.323-.233-4.075-2.169-4.075-4.503h-2c0 .718.115 1.41.328 2.057l-1.701 1.361c-1.669 1.335-2.627 3.328-2.627 5.466v2.116c0 2.953 1.613 5.532 4 6.918v1.388c0 .491-.352.906-.835.986l-5.165.861v-15.153c0-5.514 4.486-10 10-10s10 4.486 10 10v15.153zm19.835-20.569c-.552.184-1.127.277-1.71.277-1.938 0-3.691-1.012-4.661-2.664l.971-.647c.675-.451 1.462-.689 2.275-.689 1.688 0 3.183 1.013 3.81 2.58l.323.807zm.575 12.245c-1.013.675-2.191 1.032-3.408 1.032-2.439 0-4.61-1.413-5.603-3.621l.581-.387c.973-.649 2.106-.992 3.276-.992 2.063 0 4.002 1.099 5.063 2.866l.498.831zm18.755 25.232c0 3.319-1.585 6.489-4.239 8.48l-10.761 8.07-10.761-8.07c-2.654-1.991-4.239-5.161-4.239-8.48v-.635c0-2.065.729-4.077 2.051-5.664 1.536-1.843 3.794-2.901 6.194-2.901 2.154 0 4.18.839 5.702 2.361l1.053 1.054 1.052-1.053c1.523-1.523 3.549-2.362 5.703-2.362 2.4 0 4.658 1.058 6.194 2.901 1.322 1.587 2.051 3.599 2.051 5.664z"/></g></g></svg>