<svg id="Layer_1" enable-background="new 0 0 512 512" height="512" viewBox="0 0 512 512" width="512" xmlns="http://www.w3.org/2000/svg"><g><g><path d="m504.5 255.694c-49.04 125.78-164.74 165.96-248.5 165.96-5.64 0-11.43-.18-17.34-.56-81.71-5.24-185.42-48.09-231.16-165.4 49.04-125.77 164.74-165.95 248.5-165.95 72.88 0 169.94 30.42 226.23 121.17 8.4 13.55 15.9 28.44 22.27 44.78z" fill="#ecf4ff"/><path d="m504.5 255.694c-49.04 125.78-164.74 165.96-248.5 165.96-5.64 0-11.43-.18-17.34-.56 181.04-13.5 231.91-162.67 243.57-210.18 8.4 13.55 15.9 28.44 22.27 44.78z" fill="#cbe2ff"/><path d="m383.07 256.354c0 70.18-56.89 127.07-127.07 127.07-5.08 0-10.08-.3-15-.88-63.11-7.42-112.07-61.09-112.07-126.19 0-31.17 11.22-59.72 29.85-81.83l82.22-58.95 15-10.75 97.22 69.71c18.63 22.11 29.85 50.65 29.85 81.82z" fill="#b3e59f"/><path d="m383.07 256.354c0 70.18-56.89 127.07-127.07 127.07-5.08 0-10.08-.3-15-.88 63.11-7.42 112.07-61.09 112.07-126.19 0-31.17-11.22-59.71-29.85-81.82l-82.22-58.96 15-10.75 97.22 69.71c18.63 22.11 29.85 50.65 29.85 81.82z" fill="#95d6a4"/><g><path d="m297.372 219.608c-3.443-1.055-7.099-1.622-10.888-1.622-12.55-.098-24.283 6.214-31.117 16.741-6.834-10.527-18.567-16.839-31.117-16.741-20.502 0-37.122 16.62-37.122 37.122 0 36.94 68.239 74.607 68.239 74.607s68.239-37.668 68.239-74.607c0-2.841-.319-5.607-.923-8.264" fill="#d57080"/><ellipse cx="308.435" cy="234.708" fill="#fff" rx="18.717" ry="18.717" transform="matrix(.987 -.16 .16 .987 -33.613 52.437)"/></g><g><path d="m504.5 255.694s-16.6-15.06-45.58-33.21c-44-27.57-116.54-62.26-202.92-62.26-143.3 0-248.5 95.47-248.5 95.47 49.04-125.77 164.74-165.95 248.5-165.95 12.12 0 24.9.84 38.06 2.66 77.78 10.76 168.49 55.71 210.44 163.29z" fill="#e9b585"/><path d="m504.5 255.694s-16.6-15.06-45.58-33.21c-62.15-93.22-125.81-121.78-164.86-130.08 77.78 10.76 168.49 55.71 210.44 163.29z" fill="#e19d64"/></g></g><g><path d="m511.488 252.972c-19.715-50.564-51.216-91.205-93.629-120.793-34.853-24.314-76.683-40.55-120.97-46.953-4.103-.594-7.904 2.25-8.496 6.35-.593 4.1 2.25 7.903 6.35 8.496 29.277 4.233 72.913 15.373 114.534 44.409 31.941 22.283 57.327 51.271 75.736 86.416-11.941-8.532-27.963-19.008-47.464-29.536-41.1-22.188-105.96-48.636-181.549-48.636s-140.449 26.449-181.549 48.636c-19.514 10.535-35.545 21.017-47.488 29.553 22.084-42.252 54.095-75.421 95.46-98.834 39.694-22.467 87.133-34.84 133.577-34.84 4.142 0 7.5-3.358 7.5-7.5s-3.358-7.5-7.5-7.5c-48.992 0-99.055 13.064-140.966 36.786-53.043 30.023-91.573 75.089-114.522 133.946-.683 1.752-.683 3.697 0 5.449 22.948 58.857 61.479 103.923 114.522 133.946 41.911 23.722 91.974 36.786 140.966 36.786 51.106 0 102.933-14.088 145.935-39.669 3.56-2.118 4.729-6.72 2.611-10.28s-6.72-4.728-10.28-2.611c-54.936 32.68-110.208 37.56-138.266 37.56-46.444 0-93.883-12.373-133.577-34.84-48.472-27.436-84.1-68.269-105.962-121.416 8.816-7.327 32.066-25.538 65.507-43.548 15.85-8.536 35.364-17.729 57.721-25.677-11.876 20.425-18.258 43.796-18.258 67.684 0 4.142 3.358 7.5 7.5 7.5s7.5-3.358 7.5-7.5c0-27.36 9.419-53.953 26.57-75.159 27.982-7.997 59.407-13.473 92.998-13.473s65.016 5.476 92.998 13.473c11.279 13.948 19.362 30.425 23.429 47.803.809 3.458 3.891 5.792 7.296 5.792.565 0 1.141-.064 1.715-.199 4.033-.944 6.538-4.979 5.594-9.012-3.024-12.923-8.02-25.403-14.72-36.91 22.356 7.948 41.87 17.141 57.719 25.677 33.442 18.009 56.691 36.221 65.507 43.547-16.286 39.558-40.474 72.585-71.952 98.223-3.212 2.616-3.695 7.34-1.079 10.552 1.483 1.82 3.642 2.764 5.82 2.764 1.665 0 3.34-.552 4.732-1.685 34.811-28.352 61.197-65.136 78.428-109.329.685-1.751.685-3.696.002-5.448z"/><path d="m141.084 289.505c-1.146-3.98-5.299-6.28-9.282-5.132-3.98 1.146-6.278 5.302-5.132 9.282 7.915 27.489 24.857 52.241 47.708 69.698 23.611 18.037 51.835 27.571 81.622 27.571 70.831 0 129.821-55.317 134.296-125.935.262-4.134-2.876-7.697-7.011-7.959-4.123-.259-7.697 2.876-7.959 7.011-3.976 62.739-56.39 111.884-119.326 111.884-26.467 0-51.542-8.469-72.516-24.491-20.311-15.517-35.369-37.51-42.4-61.929z"/><path d="m256 449.674c-4.142 0-7.5 3.358-7.5 7.5v14.602c0 4.142 3.358 7.5 7.5 7.5s7.5-3.358 7.5-7.5v-14.602c0-4.142-3.358-7.5-7.5-7.5z"/><path d="m142.801 426.342c-3.587-2.072-8.174-.842-10.245 2.745l-7.301 12.646c-2.071 3.587-.842 8.174 2.745 10.245 1.181.682 2.471 1.006 3.743 1.006 2.592 0 5.113-1.346 6.502-3.751l7.301-12.646c2.071-3.587.842-8.174-2.745-10.245z"/><path d="m474.958 379.03-12.646-7.301c-3.587-2.072-8.174-.842-10.245 2.745s-.842 8.174 2.745 10.245l12.646 7.301c1.181.682 2.471 1.006 3.743 1.006 2.592 0 5.113-1.346 6.502-3.751 2.071-3.587.842-8.174-2.745-10.245z"/><path d="m379.444 429.088c-2.071-3.587-6.658-4.816-10.245-2.745s-4.816 6.658-2.745 10.245l7.301 12.646c1.389 2.406 3.91 3.751 6.502 3.751 1.272 0 2.562-.324 3.743-1.006 3.587-2.071 4.816-6.658 2.745-10.245z"/><path d="m49.688 371.73-12.646 7.301c-3.587 2.071-4.816 6.658-2.745 10.245 1.389 2.406 3.91 3.751 6.502 3.751 1.272 0 2.562-.324 3.743-1.006l12.646-7.301c3.587-2.071 4.816-6.658 2.745-10.245-2.071-3.588-6.657-4.816-10.245-2.745z"/><path d="m256 62.326c4.142 0 7.5-3.358 7.5-7.5v-14.601c0-4.142-3.358-7.5-7.5-7.5s-7.5 3.358-7.5 7.5v14.602c0 4.141 3.358 7.499 7.5 7.499z"/><path d="m132.556 82.913c1.389 2.406 3.91 3.751 6.502 3.751 1.272 0 2.562-.324 3.743-1.006 3.587-2.071 4.816-6.658 2.745-10.245l-7.301-12.645c-2.072-3.587-6.659-4.816-10.245-2.745-3.587 2.071-4.816 6.658-2.745 10.245z"/><path d="m458.569 141.277c1.272 0 2.562-.324 3.743-1.006l12.646-7.301c3.587-2.071 4.816-6.658 2.745-10.245s-6.658-4.817-10.245-2.745l-12.646 7.301c-3.587 2.071-4.816 6.658-2.745 10.245 1.389 2.406 3.91 3.751 6.502 3.751z"/><path d="m369.199 85.658c1.181.682 2.471 1.006 3.743 1.006 2.592 0 5.113-1.345 6.502-3.751l7.301-12.645c2.071-3.587.842-8.174-2.745-10.245-3.588-2.072-8.174-.842-10.245 2.745l-7.301 12.645c-2.071 3.587-.842 8.174 2.745 10.245z"/><path d="m37.043 132.97 12.646 7.301c1.181.682 2.471 1.006 3.743 1.006 2.592 0 5.113-1.346 6.502-3.751 2.071-3.587.842-8.174-2.745-10.245l-12.646-7.301c-3.587-2.072-8.174-.842-10.245 2.745-2.072 3.587-.843 8.174 2.745 10.245z"/><path d="m308.435 208.49c-4.432 0-8.61 1.106-12.274 3.055-3.283-.719-6.642-1.062-9.971-1.061-11.692 0-22.662 4.535-30.822 12.485-8.24-8.03-19.349-12.59-31.117-12.484-24.604 0-44.622 20.018-44.622 44.622 0 17.669 12.4 36.83 36.854 56.948 17.394 14.31 34.539 23.828 35.26 24.226 1.128.623 2.376.934 3.625.934s2.497-.312 3.625-.934c.721-.398 17.866-9.916 35.26-24.226 24.455-20.118 36.854-39.278 36.854-56.948 0-2.168-.157-4.334-.468-6.472 2.542-4.038 4.014-8.814 4.014-13.928-.001-14.455-11.762-26.217-26.218-26.217zm11.217 26.218c0 6.185-5.032 11.217-11.217 11.217s-11.217-5.032-11.217-11.217 5.032-11.217 11.217-11.217 11.217 5.032 11.217 11.217zm-64.257 86.35c-5.76-3.443-17.608-10.899-29.383-20.586-20.532-16.891-31.384-32.578-31.384-45.364 0-16.333 13.289-29.622 29.68-29.622.078-.001.155-.001.233-.001 9.951 0 19.11 4.969 24.535 13.326 1.383 2.13 3.75 3.416 6.291 3.416s4.908-1.286 6.291-3.416c4.99-7.686 13.137-12.506 22.199-13.231-1.06 2.844-1.639 5.919-1.639 9.128 0 14.456 11.761 26.217 26.217 26.217 2.492 0 4.904-.35 7.19-1.002-4.637 23.808-41.646 50.172-60.23 61.135z"/></g></g></svg>