<?xml version="1.0"?>
<svg xmlns="http://www.w3.org/2000/svg" xmlns:xlink="http://www.w3.org/1999/xlink" viewBox="0 0 64 64" width="512" height="512"><defs><linearGradient id="New_Gradient_Swatch_1" x1="32" y1="-0.583" x2="32" y2="63.971" gradientUnits="userSpaceOnUse"><stop offset="0" stop-color="#fff33b"/><stop offset="0.014" stop-color="#fee72e"/><stop offset="0.042" stop-color="#fed51b"/><stop offset="0.07" stop-color="#fdca10"/><stop offset="0.1" stop-color="#fdc70c"/><stop offset="0.4" stop-color="#f3903f"/><stop offset="0.8" stop-color="#ed683c"/><stop offset="1" stop-color="#e93e3a"/></linearGradient><linearGradient id="New_Gradient_Swatch_1-2" x1="14" y1="-0.583" x2="14" y2="63.971" xlink:href="#New_Gradient_Swatch_1"/><linearGradient id="New_Gradient_Swatch_1-3" x1="50" y1="-0.583" x2="50" y2="63.971" xlink:href="#New_Gradient_Swatch_1"/></defs><g id="Health_insurance" data-name="Health insurance"><path d="M47.978,18H52V16H48.632A12.62,12.62,0,0,0,49,13,11.013,11.013,0,0,0,38,2a10.876,10.876,0,0,0-6,1.792A10.876,10.876,0,0,0,26,2,11.013,11.013,0,0,0,15,13a12.62,12.62,0,0,0,.368,3H12v2h4.022c3.524,8.546,15,13.665,15.578,13.916a.994.994,0,0,0,.8,0C32.974,31.665,44.454,26.546,47.978,18ZM17,13a9.01,9.01,0,0,1,9-9,8.916,8.916,0,0,1,5.4,1.812,1,1,0,0,0,1.2,0A8.916,8.916,0,0,1,38,4a9.01,9.01,0,0,1,9,9,10.6,10.6,0,0,1-.447,3H44.535l-3.7-5.555a1,1,0,0,0-1.746.149L36,17.538l-3.086-6.944A1.009,1.009,0,0,0,31.952,10a1,1,0,0,0-.9.683L28,19.838l-3.052-9.154a1,1,0,0,0-1.78-.239L19.465,16H17.447A10.6,10.6,0,0,1,17,13ZM32,29.9C30.039,28.96,21.446,24.554,18.226,18H20a1,1,0,0,0,.832-.445l2.866-4.3,3.354,10.06a1,1,0,0,0,1.9,0l3.186-9.554,2.952,6.644a1,1,0,0,0,1.828,0l3.262-7.34,2.992,4.489A1,1,0,0,0,44,18h1.774C42.554,24.554,33.961,28.96,32,29.9Z" style="fill:url(#New_Gradient_Swatch_1)"/><path d="M25,48H23.535L18.5,40.453a2.984,2.984,0,0,1-.5-1.664V27a5,5,0,0,0-4.761-5A4.787,4.787,0,0,0,10,23.1V6A3.969,3.969,0,0,0,8.827,3.173,4.014,4.014,0,0,0,5.709,2.01,4.107,4.107,0,0,0,2,6.169v32.62a4.974,4.974,0,0,0,.84,2.773L7.132,48H7a1,1,0,0,0-1,1v4a1,1,0,0,0,1,1H8v7a1,1,0,0,0,1,1H23a1,1,0,0,0,1-1V54h1a1,1,0,0,0,1-1V49A1,1,0,0,0,25,48ZM4.5,40.453A2.984,2.984,0,0,1,4,38.789V6.169A2.129,2.129,0,0,1,5.852,4.005,2,2,0,0,1,8,6V38h2V27.226a3.341,3.341,0,0,1,1.035-2.4A2.818,2.818,0,0,1,13.144,24,2.995,2.995,0,0,1,16,27V38.789a4.974,4.974,0,0,0,.84,2.773L21.132,48H9.535ZM22,60H10V54H22Zm2-8H8V50H24Z" style="fill:url(#New_Gradient_Swatch_1-2)"/><path d="M58.291,2.01A4.005,4.005,0,0,0,54,6V23.1a4.762,4.762,0,0,0-3.239-1.1A5,5,0,0,0,46,27V38.789a2.984,2.984,0,0,1-.5,1.664L40.465,48H39a1,1,0,0,0-1,1v4a1,1,0,0,0,1,1h1v7a1,1,0,0,0,1,1H55a1,1,0,0,0,1-1V54h1a1,1,0,0,0,1-1V49a1,1,0,0,0-1-1h-.131l4.291-6.437A4.979,4.979,0,0,0,62,38.789V6.169A4.107,4.107,0,0,0,58.291,2.01ZM54,60H42V54H54Zm2-8H40V50H56Zm4-13.211a2.984,2.984,0,0,1-.5,1.664L54.465,48h-11.6l4.291-6.437A4.979,4.979,0,0,0,48,38.789V27a2.995,2.995,0,0,1,2.856-3,2.827,2.827,0,0,1,2.109.818A3.341,3.341,0,0,1,54,27.226V38h2V6a2,2,0,0,1,2.148-1.995A2.129,2.129,0,0,1,60,6.169Z" style="fill:url(#New_Gradient_Swatch_1-3)"/></g></svg>
