<svg enable-background="new 0 0 24 24" height="512" viewBox="0 0 24 24" width="512" xmlns="http://www.w3.org/2000/svg"><path d="m20.115 2.563c-1.059-1.018-2.468-1.577-3.967-1.577s-2.907.56-3.966 1.576l-.932.896-.933-.895c-1.058-1.018-2.466-1.578-3.965-1.578-1.498 0-2.907.56-3.966 1.577-2.18 2.094-2.18 5.501 0 7.593l8.398 8.065c.123.119.291.186.467.186s.344-.066.467-.186l8.398-8.064c2.179-2.093 2.179-5.499-.001-7.593z" fill="#f44336"/><circle cx="17.5" cy="17.5" fill="#8bc34a" r="6.5"/><path d="m17.5 21c-.414 0-.75-.336-.75-.75v-5.5c0-.414.336-.75.75-.75s.75.336.75.75v5.5c0 .414-.336.75-.75.75z"/><path d="m20.25 18.25h-5.5c-.414 0-.75-.336-.75-.75s.336-.75.75-.75h5.5c.414 0 .75.336.75.75s-.336.75-.75.75z"/><path d="m17.5 24c-3.584 0-6.5-2.916-6.5-6.5s2.916-6.5 6.5-6.5 6.5 2.916 6.5 6.5-2.916 6.5-6.5 6.5zm0-11.5c-2.757 0-5 2.243-5 5s2.243 5 5 5 5-2.243 5-5-2.243-5-5-5z"/><path d="m8.755 17c-.192 0-.384-.073-.531-.221l-6.46-6.474c-2.349-2.354-2.349-6.183 0-8.537 1.139-1.14 2.652-1.768 4.262-1.768s3.124.628 4.263 1.77l.961.963.962-.964c1.138-1.141 2.652-1.769 4.262-1.769s3.124.628 4.262 1.77c2.13 2.134 2.355 5.546.525 7.938-.252.328-.723.39-1.052.14-.329-.252-.391-.723-.14-1.052 1.376-1.797 1.206-4.362-.395-5.966-.855-.857-1.992-1.329-3.2-1.329s-2.345.472-3.2 1.328l-1.493 1.496c-.141.141-.332.22-.531.22s-.39-.079-.531-.22l-1.492-1.496c-.855-.857-1.992-1.329-3.201-1.329s-2.345.472-3.2 1.328c-1.766 1.77-1.766 4.649 0 6.418l6.46 6.475c.292.293.292.768-.001 1.061-.146.145-.338.218-.53.218z"/></svg>